<svg width="16" height="13" viewBox="0 0 16 13" fill="none" xmlns="http://www.w3.org/2000/svg">
<g clip-path="url(#clip0_50_26)">
<path d="M8.82952 4.68267H2.95427C2.84297 4.68267 2.73622 4.64696 2.65752 4.58339C2.57882 4.51982 2.53461 4.43361 2.53461 4.34371V2.98788C2.53461 2.89799 2.57882 2.81177 2.65752 2.7482C2.73622 2.68464 2.84297 2.64893 2.95427 2.64893H8.82952C8.94082 2.64893 9.04757 2.68464 9.12627 2.7482C9.20497 2.81177 9.24918 2.89799 9.24918 2.98788V4.34371C9.24918 4.43361 9.20497 4.51982 9.12627 4.58339C9.04757 4.64696 8.94082 4.68267 8.82952 4.68267ZM3.37393 4.00475H8.40986V3.3065H3.37393V4.00475Z" fill="white"/>
<path d="M8.82952 5.3877H2.95427C2.84297 5.3877 2.73622 5.42341 2.65752 5.48697C2.57882 5.55054 2.53461 5.63676 2.53461 5.72665V7.05536C2.53461 7.14526 2.57882 7.23148 2.65752 7.29504C2.73622 7.35861 2.84297 7.39432 2.95427 7.39432H7.72162L9.24918 6.14018V5.72665C9.24918 5.63676 9.20497 5.55054 9.12627 5.48697C9.04757 5.42341 8.94082 5.3877 8.82952 5.3877ZM8.40986 6.71641H3.37393V6.03849H8.40986V6.71641Z" fill="white"/>
<path d="M4.65812 11.2956V11.2753L4.79241 10.8041H1.69531V1.97088H10.0885V5.44519L10.9279 4.80456V1.63193C10.9279 1.54203 10.8836 1.45581 10.8049 1.39225C10.7262 1.32868 10.6195 1.29297 10.5082 1.29297H1.27565C1.16435 1.29297 1.05761 1.32868 0.978903 1.39225C0.900202 1.45581 0.855988 1.54203 0.855988 1.63193V11.1227C0.855988 11.2126 0.900202 11.2988 0.978903 11.3624C1.05761 11.426 1.16435 11.4617 1.27565 11.4617H4.63294C4.63639 11.4059 4.64481 11.3504 4.65812 11.2956Z" fill="white"/>
<path d="M2.53461 9.74671C2.53461 9.83661 2.57882 9.92283 2.65752 9.98639C2.73622 10.05 2.84297 10.0857 2.95427 10.0857H4.98543L5.11133 9.64503L5.16588 9.4586V9.44165H3.37393V8.75018H6.03458L6.8739 8.07227H2.95427C2.84297 8.07227 2.73622 8.10798 2.65752 8.17154C2.57882 8.23511 2.53461 8.32133 2.53461 8.41122V9.74671Z" fill="white"/>
<path d="M14.0711 6.26566L12.6568 5.12338C12.5941 5.07255 12.5195 5.03221 12.4374 5.0047C12.3553 4.97718 12.2673 4.96301 12.1784 4.96301C12.0896 4.96301 12.0015 4.97718 11.9194 5.0047C11.8374 5.03221 11.7628 5.07255 11.7 5.12338L5.94647 9.7976L5.47225 11.428C5.4545 11.4983 5.4541 11.5708 5.47108 11.6413C5.48806 11.7117 5.52208 11.7788 5.5712 11.8386C5.62032 11.8984 5.68357 11.9498 5.75732 11.9899C5.83108 12.0299 5.9139 12.0578 6.00103 12.072C6.04428 12.0755 6.08786 12.0755 6.13112 12.072C6.18254 12.0788 6.23498 12.0788 6.28639 12.072L8.32175 11.7093L14.0711 7.05543C14.1339 7.00503 14.1838 6.94509 14.2178 6.87906C14.2518 6.81304 14.2693 6.74223 14.2693 6.67072C14.2693 6.59921 14.2518 6.5284 14.2178 6.46237C14.1838 6.39635 14.1339 6.33641 14.0711 6.286V6.26566ZM7.8937 11.0924L6.35774 11.367L6.73124 10.1366L11.0454 6.61479L12.2288 7.57065L7.8937 11.0924ZM12.703 7.18763L11.5196 6.23177L12.1868 5.69961L13.3787 6.66224L12.703 7.18763Z" fill="white"/>
</g>
<defs>
<clipPath id="clip0_50_26">
<rect width="15.1078" height="12.2025" fill="white" transform="translate(0.0166626 0.615234)"/>
</clipPath>
</defs>
</svg>
